# Blender 4.4.3
# www.blender.org
mtllib level1.mtl
o Plane
v -1.000000 0.000000 1.000000
v 1.000000 0.000000 1.000000
v -1.000000 0.000000 -14.000000
v 1.000000 0.000000 -14.000000
v -3.000000 0.000000 -20.000000
v 1.000000 0.000000 -20.000000
v -6.000000 0.000000 -15.000000
v -6.000000 0.000000 -21.000000
v -13.000000 0.000000 -15.000000
v -13.000000 0.000000 -21.000000
v 7.000000 0.000000 -13.000000
v 9.000000 0.000000 -19.000000
v 14.000000 0.000000 -13.000000
v 14.000000 0.000000 -19.000000
v 21.000000 0.000000 -17.000000
v 21.000000 0.000000 -23.000000
v -3.000000 4.000000 -20.000000
v -6.000000 4.000000 -21.000000
v -13.000000 4.000000 -21.000000
v 9.000000 4.000000 -19.000000
v 14.000000 4.000000 -19.000000
v 21.000000 4.000000 -23.000000
v -3.000000 0.000000 -27.000000
v 9.000000 2.000000 -26.000000
v 1.000000 2.000000 -27.000000
v -3.000000 2.000000 -27.000000
v 9.000000 0.000000 -26.000000
v -3.000000 4.000000 -27.000000
v 9.000000 4.000000 -26.000000
v 10.000000 2.000000 -32.000000
v 1.000000 2.000000 -33.000000
v -4.000000 2.000000 -33.000000
v -4.000000 0.000000 -33.000000
v 10.000000 0.000000 -32.000000
v -4.000000 4.000000 -33.000000
v 10.000000 4.000000 -32.000000
v -1.000000 -4.947313 1.000000
v 1.000000 -4.947313 1.000000
v -1.000000 -4.947313 -14.000000
v 1.000000 -4.947313 -14.000000
v -6.000000 -4.947313 -15.000000
v -13.000000 -4.947313 -15.000000
v -13.000000 -4.947313 -21.000000
v 7.000000 -4.947313 -13.000000
v 14.000000 -4.947313 -13.000000
v 21.000000 -4.947313 -17.000000
v 21.000000 -4.947313 -23.000000
vn -0.5774 0.5774 0.5774
vn 0.5774 0.5774 0.5774
vn -0.3665 0.8806 0.3004
vn 0.2484 0.9232 0.2933
vn 0.1975 0.9144 0.3533
vn -0.0093 0.9895 0.1441
vn -0.0673 0.7300 0.6802
vn -0.1185 0.6728 0.7303
vn -0.0598 0.6890 0.7223
vn -0.3050 0.8772 0.3707
vn 0.1942 0.6536 0.7315
vn 0.1639 0.7697 0.6170
vn 0.6856 0.6097 0.3979
vn 0.8066 0.3609 0.4681
vn 0.5847 -0.0000 0.8112
vn -0.1602 -0.0000 0.9871
vn -0.0000 -0.0000 1.0000
vn -0.7071 -0.0000 0.7071
vn 0.2567 -0.0000 0.9665
vn 0.4961 -0.0000 0.8682
vn 0.9966 -0.0000 -0.0825
vn -0.0177 0.9897 0.1419
vn -0.0080 0.9910 0.1333
vn -0.0000 0.9913 0.1318
vn -0.9966 -0.0000 -0.0825
vn -0.0000 1.0000 -0.0000
vn 0.9864 -0.0000 -0.1644
vn -0.9864 -0.0000 -0.1644
vn 0.7071 -0.0000 0.7071
vn -0.7733 -0.0000 0.6340
vn 0.6464 -0.0000 0.7630
vn -0.0985 -0.0000 0.9951
vn -1.0000 -0.0000 -0.0000
vn -0.0825 -0.0000 0.9966
vn 0.8649 -0.0000 0.5019
vn 1.0000 -0.0000 -0.0000
vt 0.000000 0.000000
vt 1.000000 0.000000
vt 1.000000 7.285715
vt 0.000000 7.285714
vt 1.000000 10.500001
vt -0.990358 10.499999
vt -2.499999 10.999998
vt -2.499999 7.785714
vt -5.999998 10.999999
vt -6.000000 7.785715
vt 4.000000 6.785715
vt 4.985866 10.000001
vt 7.499997 6.785713
vt 7.499998 10.000000
vt 11.000000 8.785714
vt 10.999996 12.000001
vt 3.166957 0.247960
vt 4.445665 0.247960
vt 4.445665 2.015775
vt 3.166957 2.015775
vt 11.428776 0.247960
vt 14.320413 0.247960
vt 14.320413 2.015775
vt 11.428776 2.015775
vt 0.275321 0.247960
vt 0.275321 2.015775
vt 9.351644 0.247960
vt 9.351644 2.015775
vt 0.816788 13.427353
vt -1.159959 13.436872
vt 4.731055 12.915159
vt 3.624041 0.247960
vt 3.624041 2.015775
vt 0.634502 15.902001
vt -1.804474 15.916410
vt 5.009084 15.374106
vt 9.351645 2.015775
vt 9.351645 0.247960
vt 3.457119 0.247960
vt 3.457119 2.015775
s 1
usemtl Material
f 1/1/1 2/2/2 4/3/4 3/4/3
f 3/4/3 4/3/4 6/5/6 5/6/5
f 3/4/3 5/6/5 8/7/8 7/8/7
f 7/8/7 8/7/8 10/9/1 9/10/1
f 6/5/6 4/3/4 11/11/9 12/12/10
f 12/12/10 11/11/9 13/13/11 14/14/12
f 14/14/12 13/13/11 15/15/13 16/16/14
f 5/6/5 6/5/6 25/29/23 26/30/24
f 6/5/6 12/12/10 24/31/22 25/29/23
f 26/30/24 25/29/23 31/34/26 32/35/26
f 25/29/23 24/31/22 30/36/26 31/34/26
f 7/8/7 9/10/1 42/10/18 41/8/32
f 13/13/11 11/11/9 44/11/34 45/13/19
f 2/2/2 1/1/1 37/1/18 38/2/29
f 3/4/3 7/8/7 41/8/32 39/4/30
f 11/11/9 4/3/4 40/3/31 44/11/34
f 4/3/4 2/2/2 38/2/29 40/3/31
f 16/16/14 15/15/13 46/15/35 47/16/36
f 9/10/1 10/9/1 43/9/33 42/10/18
f 1/1/1 3/4/3 39/4/30 37/1/18
f 15/15/13 13/13/11 45/13/19 46/15/35
usemtl Material.001
f 8/17/8 5/18/5 17/19/15 18/20/16
f 14/21/12 16/22/14 22/23/20 21/24/19
f 10/25/1 8/17/8 18/20/16 19/26/17
f 12/27/10 14/21/12 21/24/19 20/28/18
f 12/27/10 20/28/18 29/28/25 27/27/25
f 17/19/15 5/18/5 23/32/21 28/33/21
f 27/27/25 29/28/25 36/37/28 34/38/28
f 28/33/21 23/32/21 33/39/27 35/40/27
